#!OML:ASF H:\Terrain\Patient Classification 1\PLAYGROUND\JustinFriday\JustinFriday.ASF
:FULLY-SPECIFIED
:DEGREES
67
root 9.49539 17.8994 -18.3182 4.5737 -5.86172 -4.99451
lowerback 12.0725 -0.103313 2.58967
upperback 3.03177 0.339441 4.00752
thorax -3.60131 0.150075 2.6761
lowerneck -6.43377 -1.99169 -7.29835
upperneck 2.71581 -2.19076 3.24118
head 2.13047 -1.09193 2.24611
rclavicle -2.78299e-015 -2.3059e-014
rhumerus -29.1476 9.08279 -87.7141
rradius 79.1557
rwrist -17.2498
rhand -19.9327 -11.5512
rfingers 7.12502
rthumb 6.40483 -41.4344
lclavicle -2.78299e-015 -2.3059e-014
lhumerus -24.3413 -5.26418 79.9959
lradius 118.511
lwrist 4.55231
lhand -38.1587 -24.1358
lfingers 7.12502
lthumb -11.1923 5.5457
rfemur -12.5232 2.675 23.7403
rtibia 28.6649
rfoot -14.545 -9.51747
rtoes 4.23815
lfemur -12.2417 2.66453 -11.894
ltibia 29.5554
lfoot -17.3741 4.72345
ltoes -6.09053
68
root 9.49063 17.8922 -18.326 4.49083 -5.75153 -5.04521
lowerback 12.3906 -0.0315721 2.64405
upperback 3.0054 0.456683 3.94339
thorax -3.8058 0.206985 2.56257
lowerneck -6.53618 -2.08795 -6.94581
upperneck 2.63677 -2.34119 3.24395
head 2.12418 -1.16082 2.17533
rclavicle 1.59028e-014 1.11319e-014
rhumerus -28.744 8.87555 -87.5567
rradius 80.1727
rwrist -16.7813
rhand -20.4185 -11.3156
rfingers 7.12502
rthumb 5.93575 -41.2124
lclavicle 1.59028e-014 1.11319e-014
lhumerus -24.9104 -5.09939 79.8836
lradius 117.768
lwrist 5.01596
lhand -37.8623 -23.7167
lfingers 7.12502
lthumb -10.9065 5.9801
rfemur -12.4389 2.48031 23.847
rtibia 28.7031
rfoot -14.5661 -9.55399
rtoes 3.49184
lfemur -12.2383 2.73639 -11.7776
ltibia 29.6545
lfoot -17.4243 4.55099
ltoes -6.23124
69
root 9.48572 17.8835 -18.3289 4.48092 -5.68692 -5.21365
lowerback 12.5519 0.0743672 2.85147
upperback 3.05733 0.624563 3.84254
thorax -3.84058 0.28802 2.31362
lowerneck -6.90001 -2.24232 -6.44685
upperneck 2.556 -2.56646 3.2696
head 2.16597 -1.26304 2.08169
rclavicle -6.75868e-015 -7.95139e-016
rhumerus -28.1915 8.3706 -87.4282
rradius 81.2084
rwrist -16.2627
rhand -19.8913 -10.7925
rfingers 7.12502
rthumb 6.44479 -40.6745
lclavicle -6.75868e-015 -7.95139e-016
lhumerus -25.1756 -5.01437 79.628
lradius 116.952
lwrist 5.38106
lhand -37.0822 -23.6643
lfingers 7.12502
lthumb -10.1539 6.07067
rfemur -12.4503 2.47353 24.0715
rtibia 28.793
rfoot -14.6449 -9.55163
rtoes 4.16069
lfemur -12.3139 2.77454 -11.5401
ltibia 29.7952
lfoot -17.4491 4.44715
ltoes -6.31083
70
root 9.47982 17.8755 -18.327 4.51916 -5.89206 -5.34425
lowerback 12.563 0.096964 2.72745
upperback 2.90379 0.65332 3.98147
thorax -4.01158 0.302687 2.52642
lowerneck -6.27712 -2.15578 -6.75496
upperneck 2.32119 -2.47451 3.51407
head 1.98206 -1.21632 2.22416
rclavicle 3.37934e-015 -4.77083e-015
rhumerus -28.294 8.65776 -87.1983
rradius 82.427
rwrist -16.0623
rhand -19.2732 -10.6615
rfingers 7.12502
rthumb 7.04144 -40.5244
lclavicle 3.37934e-015 -4.77083e-015
lhumerus -26.2756 -4.30137 79.6569
lradius 116.284
lwrist 5.34662
lhand -36.4241 -23.8885
lfingers 7.12502
lthumb -9.51899 5.87652
rfemur -12.5497 2.80046 24.2347
rtibia 28.923
rfoot -14.6511 -9.63428
rtoes 4.53147
lfemur -12.3859 2.90404 -11.3734
ltibia 29.9658
lfoot -17.5518 4.58439
ltoes -6.67897
71
root 9.47325 17.8712 -18.3305 4.48172 -6.09655 -5.30033
lowerback 12.6843 0.172928 2.49746
upperback 2.87316 0.732698 4.0005
thorax -4.11554 0.343686 2.66449
lowerneck -6.17728 -2.14356 -6.93807
upperneck 2.22515 -2.45915 3.75372
head 1.94098 -1.20448 2.33869
rclavicle -7.35503e-015 -3.33958e-014
rhumerus -28.1171 8.70778 -86.975
rradius 83.5611
rwrist -16.0907
rhand -19.1054 -10.7362
rfingers 7.12502
rthumb 7.20338 -40.5936
lclavicle -7.35503e-015 -3.33958e-014
lhumerus -26.9855 -3.86234 79.5683
lradius 115.683
lwrist 5.46479
lhand -36.5328 -24.1513
lfingers 7.12502
lthumb -9.62394 5.6089
rfemur -12.6007 2.96351 24.2155
rtibia 29.0579
rfoot -14.6753 -9.63719
rtoes 4.3901
lfemur -12.3941 3.1682 -11.4033
ltibia 30.1274
lfoot -17.5891 4.54946
ltoes -6.84134
72
root 9.46942 17.8685 -18.3256 4.34686 -6.16108 -5.23036
lowerback 12.7642 0.22791 2.33117
upperback 2.912 0.784864 3.9824
thorax -4.12218 0.370922 2.73107
lowerneck -6.12508 -2.22376 -6.85464
upperneck 2.03351 -2.57353 3.73761
head 1.87286 -1.25941 2.3126
rclavicle -1.19271e-014 2.14687e-014
rhumerus -27.7548 8.65322 -86.7126
rradius 84.5549
rwrist -16.0385
rhand -18.9914 -10.6452
rfingers 7.12502
rthumb 7.31343 -40.4989
lclavicle -1.19271e-014 2.14687e-014
lhumerus -27.453 -3.51432 79.4902
lradius 115.128
lwrist 5.60828
lhand -36.7847 -23.8927
lfingers 7.12502
lthumb -9.8669 5.85611
rfemur -12.4502 2.94198 24.1685
rtibia 29.1468
rfoot -14.8421 -9.55431
rtoes 4.59727
lfemur -12.2691 3.31734 -11.4562
ltibia 30.2419
lfoot -17.635 4.39543
ltoes -6.57604
73
root 9.46876 17.8675 -18.3196 4.31485 -6.23544 -5.26477
lowerback 12.7762 0.261304 2.29451
upperback 2.88932 0.825698 3.97779
thorax -4.15432 0.391396 2.7405
lowerneck -5.98544 -2.30919 -6.74281
upperneck 1.78621 -2.70138 3.70072
head 1.77037 -1.32155 2.27416
rclavicle 2.52457e-014 5.725e-014
rhumerus -27.4904 8.83128 -86.5531
rradius 85.4736
rwrist -15.35
rhand -19.5636 -11.016
rfingers 7.12502
rthumb 6.76109 -40.8881
lclavicle 2.52457e-014 5.725e-014
lhumerus -27.974 -3.03974 79.3733
lradius 114.606
lwrist 5.52986
lhand -36.7309 -23.6436
lfingers 7.12502
lthumb -9.81503 6.10765
rfemur -12.375 2.97145 24.2092
rtibia 29.1881
rfoot -14.8947 -9.48767
rtoes 4.75111
lfemur -12.228 3.35357 -11.4079
ltibia 30.3283
lfoot -17.7858 4.33646
ltoes -6.31723
74
root 9.46973 17.8697 -18.3169 4.32451 -6.36201 -5.32247
lowerback 12.9154 0.271764 2.34328
upperback 2.80901 0.855272 3.94904
thorax -4.31491 0.40502 2.6785
lowerneck -6.05779 -2.29683 -6.94868
upperneck 1.79389 -2.67582 4.01484
head 1.79684 -1.30309 2.41838
rclavicle 1.92821e-014 2.06736e-014
rhumerus -27.1574 8.96519 -86.4195
rradius 86.2982
rwrist -15.245
rhand -19.2101 -11.359
rfingers 7.12502
rthumb 7.10237 -41.2199
lclavicle 1.92821e-014 2.06736e-014
lhumerus -28.5181 -2.49417 79.1591
lradius 114.126
lwrist 5.45782
lhand -36.5994 -23.6383
lfingers 7.12502
lthumb -9.68812 6.11887
rfemur -12.4156 3.00954 24.2543
rtibia 29.1946
rfoot -14.777 -9.44368
rtoes 4.42312
lfemur -12.2399 3.44492 -11.3631
ltibia 30.4345
lfoot -17.8684 4.28995
ltoes -5.56513
75
root 9.46632 17.8688 -18.3161 4.28775 -6.58199 -5.34545
lowerback 13.1639 0.35987 2.30761
upperback 2.72424 0.980488 3.89689
thorax -4.54402 0.466332 2.62351
lowerneck -6.37996 -2.26342 -7.31375
upperneck 2.13945 -2.60651 4.56281
head 1.98692 -1.25966 2.67577
rclavicle 5.76476e-015 -5.96354e-015
rhumerus -26.8868 8.80155 -86.1896
rradius 87.1361
rwrist -15.5649
rhand -19.3893 -11.6721
rfingers 7.12502
rthumb 6.92935 -41.5387
lclavicle 5.76476e-015 -5.96354e-015
lhumerus -29.0695 -2.17153 78.9808
lradius 113.717
lwrist 5.60636
lhand -36.5786 -23.6289
lfingers 7.12502
lthumb -9.66807 6.12922
rfemur -12.4131 3.22343 24.2802
rtibia 29.2001
rfoot -14.6888 -9.44657
rtoes 4.14197
lfemur -12.1754 3.65861 -11.34
ltibia 30.5048
lfoot -17.8301 4.30913
ltoes -5.12387
76
root 9.46046 17.8642 -18.3194 4.29772 -6.84001 -5.47477
lowerback 13.3212 0.501216 2.33536
upperback 2.69337 1.17765 3.85246
thorax -4.66725 0.562366 2.52726
lowerneck -6.56211 -2.29762 -7.29419
upperneck 2.23186 -2.65146 4.7722
head 2.05872 -1.27573 2.74188
rclavicle 1.55052e-014 3.45885e-014
rhumerus -26.6864 8.6028 -85.9792
rradius 87.9667
rwrist -15.3202
rhand -20.4106 -11.5106
rfingers 7.12502
rthumb 5.9434 -41.4072
lclavicle 1.55052e-014 3.45885e-014
lhumerus -29.4986 -1.96207 78.7858
lradius 113.282
lwrist 5.76157
lhand -36.6579 -23.8259
lfingers 7.12502
lthumb -9.74456 5.9287
rfemur -12.4414 3.58455 24.4432
rtibia 29.2332
rfoot -14.7129 -9.52043
rtoes 4.02372
lfemur -12.1269 3.86044 -11.1778
ltibia 30.5014
lfoot -17.8088 4.38107
ltoes -5.53333
77
root 9.46012 17.8627 -18.311 4.2043 -6.93068 -5.36696
lowerback 13.2491 0.616183 2.30516
upperback 2.80545 1.30728 3.67585
thorax -4.50956 0.626282 2.33565
lowerneck -6.51417 -2.3856 -6.98244
upperneck 1.94382 -2.79494 4.83044
head 1.95813 -1.34092 2.69546
rclavicle 6.36111e-015 -1.07344e-014
rhumerus -26.3373 8.36457 -85.873
rradius 88.6101
rwrist -14.5661
rhand -21.5889 -11.1715
rfingers 7.12502
rthumb 4.8057 -41.097
lclavicle 6.36111e-015 -1.07344e-014
lhumerus -29.5818 -1.84489 78.514
lradius 112.831
lwrist 5.63552
lhand -36.6561 -23.5461
lfingers 7.12502
lthumb -9.74283 6.20853
rfemur -12.3571 3.637 24.3109
rtibia 29.32
rfoot -14.9162 -9.44261
rtoes 4.27908
lfemur -11.9551 3.75316 -11.3035
ltibia 30.4762
lfoot -17.9002 4.47393
ltoes -5.96268
